<svg width="317" height="104" viewBox="0 0 317 104" fill="none" xmlns="http://www.w3.org/2000/svg">
<path fill-rule="evenodd" clip-rule="evenodd" d="M44.2638 0.481991C32.7372 2.27556 22.8136 7.45925 14.5252 16.0156C2.0378 28.9072 -2.80813 47.1927 1.59386 64.8109C6.14425 83.0234 20.5958 97.5415 38.9245 102.314C56.3067 106.84 75.0768 102.098 87.7297 89.9842L89.399 88.3864L81.8659 80.8683C77.723 76.7334 74.1816 73.3502 73.9964 73.3502C73.8113 73.3502 73.1682 73.8604 72.567 74.4834C71.0671 76.0391 66.8604 78.772 64.1774 79.9343C59.7802 81.8389 57.1029 82.3494 51.6555 82.3228C46.2527 82.2962 44.0155 81.8683 39.5241 80.0036C30.5229 76.2662 23.4085 67.6001 21.3207 57.8311C20.565 54.2936 20.565 48.7614 21.3207 45.2239C23.9615 32.8662 33.3496 23.615 45.889 21.014C48.7946 20.4115 54.3584 20.3938 57.4146 20.9773C63.7021 22.1782 69.9572 25.5439 74.4711 30.1558L75.8822 31.5977L83.0329 24.2814C86.9655 20.2578 90.2222 16.8683 90.27 16.7497C90.3823 16.4714 88.806 14.8587 86.0402 12.4219C80.4076 7.45893 72.7192 3.48087 64.8151 1.43966C59.204 -0.00949378 50.1369 -0.432032 44.2638 0.481991ZM61.4856 7.70942C67.4334 9.03997 73.5699 11.752 78.3908 15.181L81.1851 17.1685L78.4698 19.8767C76.3909 21.9498 75.6495 22.5112 75.3067 22.2705C70.6612 19.0069 68.0251 17.5843 64.0224 16.1817C59.5027 14.5975 55.8234 14.0962 50.063 14.2796L45.0534 14.439L44.2194 11.1204C43.7609 9.2952 43.4302 7.75749 43.4844 7.70309C44.3599 6.83018 57.5754 6.83461 61.4856 7.70942ZM38.0867 12.9526C38.5592 14.7585 38.9159 16.2497 38.8795 16.2664C35.3987 17.869 31.062 20.2356 29.617 21.322C27.0025 23.2873 23.4205 26.84 21.522 29.3506C18.398 33.482 15.5542 40.2762 14.815 45.376L14.4275 48.0485H10.6715H6.91544L7.10728 46.8625C8.54248 37.9867 11.0247 31.6135 15.4232 25.512C18.9348 20.6405 24.5846 15.5795 29.6899 12.7321C32.3066 11.2725 36.4914 9.44005 36.9103 9.57036C37.0847 9.62444 37.6139 11.1467 38.0867 12.9526ZM137.688 28.6769C133.001 38.221 130.38 43.5708 123.318 58.0111C121.616 61.49 117.996 68.875 115.272 74.4217C112.548 79.9685 110.319 84.6326 110.319 84.7856C110.319 84.9406 113.429 85.0266 117.32 84.9792L124.321 84.8941L127.053 78.964L129.784 73.0339L143.755 73.0434L157.726 73.0529L160.481 78.9735L163.236 84.8941L170.073 84.9795C177.678 85.0741 177.425 85.1569 176.28 82.9475C175.385 81.2194 162.006 53.9916 162.006 53.897C162.006 53.854 159.25 48.2152 155.88 41.3663C152.511 34.5178 148.634 26.6016 147.265 23.7747L144.775 18.6353H143.698H142.62L137.688 28.6769ZM289.481 19.6233C275.363 20.4605 264.379 28.7209 260.504 41.4147C259.408 45.0076 258.945 48.4126 258.957 52.7926C259.006 70.4105 269.997 83.1106 287.172 85.3967C291.532 85.977 299.079 85.6063 302.869 84.6259C307.838 83.3403 313.997 80.5444 316.336 78.513L317 77.9361L314.563 73.4422C313.223 70.9706 312.042 68.8642 311.939 68.7617C311.837 68.6593 310.844 69.2052 309.733 69.9753C305.775 72.7196 301.639 74.269 296.515 74.9275C294.197 75.2254 292.967 75.2232 290.809 74.9176C281.303 73.5719 275.31 67.9534 272.943 58.1692C272.268 55.3787 272.437 48.4182 273.253 45.4235C275.174 38.3706 280.262 32.9785 286.944 30.9139C290.388 29.85 297.007 29.8702 300.896 30.9563C305.27 32.178 310.02 34.317 312.298 36.0919C313.043 36.6719 313.087 36.6735 313.287 36.1273C313.608 35.2519 314.346 26.0753 314.139 25.5367C313.862 24.8172 309.36 22.6162 305.97 21.5434C300.451 19.7967 295.763 19.2508 289.481 19.6233ZM186.886 20.612C186.803 20.8296 186.772 35.3819 186.817 52.9507L186.899 84.8941L193.479 84.9795L200.058 85.0652V52.6408V20.2167H193.548C188.631 20.2167 187.001 20.3134 186.886 20.612ZM216.694 20.612C216.611 20.8296 216.58 35.3819 216.624 52.9507L216.706 84.8941L223.286 84.9795L229.866 85.0652V70.0357V55.0065H237.952H246.038V49.788V44.5695H237.952H229.866V37.6116V30.6536H241.44H253.014V25.4351V20.2167H234.93C220.754 20.2167 216.812 20.3021 216.694 20.612ZM46.2647 32.3428C42.7202 33.3954 40.68 34.6301 37.8318 37.4462C33.4948 41.7342 31.7853 46.1588 32.0853 52.3182C32.3542 57.8336 33.9454 61.4236 37.841 65.3021C40.3172 67.7677 42.5651 69.159 45.8398 70.2526C48.7391 71.2211 54.6952 71.2894 57.3633 70.3845C67.3129 67.0112 72.9602 57.908 71.3179 47.8904C70.104 40.4862 64.036 34.008 56.5248 32.098C53.6538 31.3678 49.1884 31.4743 46.2647 32.3428ZM56.7291 38.5101C66.0131 42.1207 68.5252 54.0001 61.4884 61.0185C53.8777 68.6096 41.1987 65.1012 38.3474 54.6156C38.1007 53.7076 37.9948 52.0826 38.0785 50.4895C38.3743 44.869 42.0315 40.1772 47.6876 38.1625C49.855 37.3905 54.2877 37.561 56.7291 38.5101ZM153.369 63.0945C153.289 63.1739 148.869 63.2011 143.545 63.1552L133.866 63.0714L136.917 56.4022C138.595 52.7341 140.316 48.9625 140.741 48.021C141.166 47.0795 142 45.2568 142.595 43.9708L143.676 41.6326L148.595 52.2916C151.3 58.1537 153.448 63.0151 153.369 63.0945ZM14.6251 56.4297C15.5437 63.9864 19.0534 71.3049 24.511 77.0446C28.0261 80.7411 30.6076 82.6922 34.7699 84.7995C36.5577 85.7047 38.017 86.5944 38.0128 86.7766C38.0027 87.2405 36.1676 93.9635 36.0075 94.1232C35.7227 94.4072 30.2065 91.6082 27.3015 89.7055C20.5248 85.2673 15.278 79.3837 11.7293 72.2433C9.11897 66.99 7.62955 61.954 7.07335 56.4983L6.85456 54.3531L10.6246 54.4426L14.3946 54.5321L14.6251 56.4297ZM79.5527 87.8924C79.5356 88.2633 75.3026 90.9033 72.3818 92.3644C69.07 94.021 65.0897 95.4089 61.1685 96.2742C57.9651 96.981 49.6159 97.26 46.2159 96.7736C41.7099 96.129 42.0689 96.679 43.2472 92.224C44.2087 88.5888 44.3086 88.3775 45.0274 88.4512C48.8551 88.8437 54.6264 88.8858 56.9995 88.5382C62.2786 87.7655 67.7714 85.7474 71.9499 83.0452L73.6939 81.9174L76.6271 84.8226C78.2405 86.4207 79.5568 87.8019 79.5527 87.8924Z" fill="white"/>
</svg>
