<svg width="472" height="125" viewBox="0 0 472 125" fill="none" xmlns="http://www.w3.org/2000/svg">
<g clip-path="url(#clip0_3372_205)">
<path d="M115.81 71.5671C117.506 72.2263 119.236 72.8129 120.891 73.5621C123.215 74.6139 124.651 77.7271 123.881 80.1381C122.142 85.5829 119.942 90.825 116.885 95.693C113.991 100.302 110.655 104.555 106.697 108.281C103.449 111.339 99.9255 114.081 96.0804 116.381C91.4023 119.179 86.4654 121.434 81.2388 122.965C78.52 123.762 75.6835 124.157 72.903 124.748C72.6736 124.796 72.4665 124.95 72.2403 125.158C66.2724 125.262 60.3133 125.262 54.2311 125.262C53.5315 125.005 52.9778 124.649 52.3741 124.512C50.9018 124.177 49.3882 124.018 47.9232 123.658C41.5804 122.1 35.66 119.573 30.0863 116.143C25.0919 113.069 20.661 109.348 16.7125 105.071C13.0974 101.155 9.9151 96.8881 7.54881 92.0798C6.34861 89.641 5.01997 87.2306 4.16051 84.6701C3.44987 82.5529 2.30435 80.5187 2.57721 78.0743C2.82346 75.8682 3.80512 74.1591 5.89712 73.367C7.27354 72.8458 8.65415 72.3356 10.215 71.8632C10.7534 73.3774 11.0763 74.8579 11.472 76.3187C13.1868 82.6497 15.95 88.477 19.7821 93.8213C24.3036 100.127 29.9124 105.249 36.657 109.033C47.6398 115.194 59.3961 117.382 71.8919 115.33C84.0502 113.334 94.2634 107.785 102.628 98.7724C108.005 92.9793 111.877 86.3206 114.214 78.8008C114.945 76.451 115.289 73.9817 115.81 71.5671Z" fill="#373736"/>
<path d="M10.5404 53.6819C9.00082 53.104 7.45587 52.5398 5.92278 51.9452C2.46861 50.6056 2.05564 47.6511 2.824 44.8411C4.12255 40.0922 6.14936 35.6115 8.6208 31.3172C10.941 27.2858 13.6753 23.5604 16.7902 20.1571C19.0847 17.6501 21.7104 15.4064 24.3881 13.2976C27.0792 11.1782 29.8892 9.13929 32.8838 7.49387C35.7407 5.92408 38.8683 4.81451 41.9412 3.67534C44.5217 2.71869 47.1881 1.98801 49.8304 1.20378C50.8776 0.892955 51.9622 0.707632 53.0436 0.363627C59.7169 0.262085 66.3764 0.262085 73.1591 0.262085C73.8583 0.518447 74.4128 0.853053 75.0141 1.01799C78.0532 1.85161 81.121 2.5839 84.1476 3.45905C89.033 4.87174 93.4975 7.23973 97.718 9.99334C100.462 11.7839 103.082 13.8385 105.47 16.08C108.351 18.7845 111.058 21.7039 113.589 24.7388C115.19 26.6592 116.394 28.9249 117.663 31.1013C118.791 33.0352 119.804 35.0394 120.79 37.0508C121.414 38.3246 121.991 39.6382 122.417 40.9881C123.02 42.8998 123.648 44.8354 123.928 46.8084C124.272 49.2254 122.807 50.8574 120.79 51.8768C119.412 52.573 117.872 52.9496 116.209 53.4215C115.955 53.2136 115.872 53.0578 115.84 52.8922C113.199 39.3415 106.35 28.3857 95.3585 20.0336C88.5687 14.8744 80.9469 11.5999 72.5108 10.1404C67.0007 9.18716 61.4844 9.06415 55.9786 9.78508C49.2076 10.6717 42.8208 12.8434 36.8634 16.2148C32.4265 18.7257 28.306 21.7085 24.9006 25.474C22.1649 28.499 19.6594 31.786 17.4368 35.2058C13.7873 40.8213 11.5897 47.0585 10.5404 53.6819Z" fill="#373736"/>
<path d="M472.263 67.2251C472.088 67.4741 471.831 67.5618 471.751 67.7323C471.074 69.1649 470.65 70.7772 469.721 72.0153C468.491 73.6541 467.078 75.1414 465.266 76.3264C462.375 78.2169 459.284 78.8229 455.992 78.5831C452.921 78.3593 450.213 77.0701 447.879 75.0555C447.681 74.8847 447.627 74.5482 447.386 74.0292C447.386 75.4093 447.386 76.5359 447.386 77.7453C444.981 77.7453 442.685 77.7453 440.303 77.7453C440.303 63.8864 440.303 49.9806 440.303 35.988C442.545 35.988 444.841 35.988 447.232 35.988C447.232 41.0233 447.232 46.1112 447.232 51.4063C448.421 49.6731 449.985 48.712 451.654 48.0428C453.795 47.1844 456.065 46.578 458.409 46.9295C460.707 47.2743 462.909 47.7811 464.995 49.0785C467.349 50.5422 469.048 52.4695 470.456 54.7181C471.152 55.8284 471.555 57.1205 472.177 58.2532C472.263 61.1515 472.263 64.1269 472.263 67.2251ZM447.31 62.7627C447.515 64.0163 447.511 65.3523 447.967 66.5074C449.099 69.3737 451.356 71.0125 454.327 71.8002C456.662 72.4192 458.884 71.92 460.857 70.8842C463.066 69.7245 464.55 67.7612 465.177 65.2341C465.956 62.0939 465.43 59.0675 463.419 56.7138C461.32 54.2582 458.406 53.1304 454.961 53.6919C450.728 54.3816 447.258 57.8686 447.31 62.7627Z" fill="white"/>
<path d="M115.708 71.555C115.289 73.9817 114.945 76.451 114.214 78.8007C111.877 86.3205 108.005 92.9793 102.628 98.7724C94.2633 107.785 84.0501 113.334 71.8918 115.33C59.3961 117.382 47.6397 115.194 36.6569 109.033C29.9124 105.249 24.3035 100.127 19.782 93.8213C15.95 88.4769 13.1867 82.6496 11.4719 76.3187C11.0763 74.8578 10.7534 73.3774 10.3125 71.8535C12.8418 71.0254 15.4565 70.2526 18.0688 69.4719C18.5588 69.3254 19.0395 69.1476 19.6179 69.0948C19.7174 69.5976 19.6678 69.9999 19.7376 70.3805C21.3622 79.2381 25.2963 86.9474 31.5632 93.4039C35.4179 97.3753 39.9272 100.479 44.9963 102.796C53.4095 106.641 62.2109 107.647 71.2106 106.014C82.3488 103.993 91.4263 98.3402 98.3578 89.3683C102.981 83.3842 105.763 76.6061 106.923 69.1527C109.817 69.9494 112.712 70.7461 115.708 71.555Z" fill="#767575"/>
<path d="M10.6287 53.7245C11.5897 47.0585 13.7872 40.8213 17.4368 35.2058C19.6594 31.786 22.1649 28.499 24.9006 25.474C28.3059 21.7085 32.4265 18.7258 36.8633 16.2149C42.8208 12.8434 49.2076 10.6717 55.9786 9.7851C61.4844 9.06417 67.0007 9.18718 72.5107 10.1405C80.9469 11.6 88.5687 14.8744 95.3585 20.0336C106.35 28.3857 113.199 39.3415 115.84 52.8922C115.872 53.0578 115.955 53.2136 116.112 53.4218C114.44 54.069 112.68 54.7024 110.895 55.2563C109.64 55.6461 108.35 55.928 106.975 56.1606C106.128 50.8786 104.453 46.0009 101.912 41.4285C97.7453 33.9281 91.9078 28.0684 84.3319 24.0013C76.5305 19.8131 68.2195 18.0328 59.3503 18.8357C53.942 19.3252 48.7757 20.655 43.9348 23.0588C33.7942 28.0943 26.5068 35.853 22.24 46.3443C20.9469 49.524 19.8337 52.7844 19.7229 56.2792C16.7209 55.4418 13.719 54.6045 10.6287 53.7245Z" fill="#767575"/>
<path d="M19.827 56.3016C19.8337 52.7844 20.9469 49.5239 22.2401 46.3442C26.5068 35.853 33.7942 28.0942 43.9348 23.0588C48.7757 20.655 53.9421 19.3252 59.3503 18.8356C68.2196 18.0328 76.5306 19.813 84.3319 24.0012C91.9078 28.0684 97.7453 33.9281 101.913 41.4285C104.453 46.0009 106.128 50.8786 106.875 56.1672C104.076 56.8113 101.276 57.3484 98.478 57.8977C98.2826 57.936 98.1048 58.0641 97.8134 58.037C97.2921 56.1079 96.9598 54.2685 96.4463 52.4808C94.0077 43.9918 88.691 37.6526 81.3248 33.016C74.0876 28.4605 66.0593 27.125 57.6945 28.3837C50.6715 29.4406 44.5094 32.5496 39.3135 37.4394C35.607 40.9276 32.7855 45.0501 30.9186 49.7674C29.8666 52.4256 28.8699 55.1417 28.9133 58.0835C26.2062 57.5824 23.4986 57.0842 20.7928 56.5762C20.5001 56.5212 20.2181 56.4095 19.827 56.3016Z" fill="#A8A7A7"/>
<path d="M106.864 69.0637C105.763 76.6061 102.981 83.3841 98.3578 89.3682C91.4263 98.3402 82.3489 103.993 71.2106 106.014C62.2109 107.647 53.4095 106.641 44.9963 102.796C39.9272 100.479 35.4179 97.3752 31.5632 93.4038C25.2963 86.9473 21.3622 79.238 19.7376 70.3804C19.6678 69.9999 19.7174 69.5975 19.7173 69.0943C21.5306 68.6182 23.3341 68.2328 25.1467 67.8956C26.3079 67.6795 27.4825 67.5347 28.7673 67.4572C29.3077 69.5474 29.5789 71.5862 30.1849 73.5205C32.0825 79.5776 35.5852 84.6268 40.3211 88.8236C43.8581 91.958 47.881 94.2614 52.4121 95.6813C56.9103 97.0909 61.4686 97.648 66.1945 97.2656C70.9357 96.8819 75.3759 95.5828 79.5388 93.39C84.8456 90.5946 89.1797 86.6606 92.4397 81.6166C95.2441 77.2774 97.0609 72.5534 97.6947 67.4047C100.219 67.8705 102.743 68.3422 105.269 68.7974C105.775 68.8885 106.293 68.9172 106.864 69.0637Z" fill="#A8A7A7"/>
<path d="M38.0824 66.0307C39.9956 65.7761 41.9019 65.4195 43.8236 65.2886C47.5555 65.0343 51.2944 64.8422 55.0335 64.7428C60 64.6108 64.9719 64.4684 69.9371 64.5613C74.4451 64.6456 78.95 65.0018 83.4508 65.3157C85.0781 65.4292 86.6897 65.7677 88.3929 66.1461C88.4232 66.4542 88.345 66.6161 88.3187 66.786C87.3733 72.8786 84.5286 77.922 79.8337 81.9062C73.2322 87.5084 65.6489 89.2639 57.2398 87.3688C51.2082 86.0095 46.3742 82.6765 42.7207 77.7668C40.1465 74.3076 38.4306 70.4136 38.0824 66.0307Z" fill="#FEFEFE"/>
<path d="M88.4962 59.3746C84.9115 59.6717 81.3318 60.1161 77.7411 60.2355C70.0381 60.4915 62.3264 60.7805 54.624 60.6684C49.186 60.5893 43.7574 59.8731 38.2162 59.3076C38.1065 58.9125 38.0658 58.6444 38.1098 58.3909C39.0062 53.2247 41.258 48.6737 44.9422 44.9925C50.5931 39.3463 57.4492 36.7565 65.5398 37.427C71.0652 37.8849 75.8439 39.9705 79.9559 43.5289C84.78 47.7035 87.6257 53.0323 88.4962 59.3746Z" fill="#FEFEFE"/>
<path d="M37.9663 66.0349C38.4306 70.4137 40.1465 74.3076 42.7206 77.7669C46.3741 82.6765 51.2082 86.0096 57.2397 87.3689C65.6488 89.2639 73.2321 87.5085 79.8337 81.9063C84.5285 77.922 87.3732 72.8786 88.3186 66.7861C88.3449 66.6162 88.4231 66.4543 88.4914 66.188C91.5061 66.4967 94.5065 66.9061 97.6007 67.3601C97.0609 72.5535 95.244 77.2775 92.4396 81.6167C89.1796 86.6607 84.8455 90.5947 79.5388 93.3901C75.3759 95.5829 70.9356 96.882 66.1945 97.2657C61.4686 97.6481 56.9102 97.091 52.412 95.6814C47.881 94.2615 43.858 91.9581 40.3211 88.8237C35.5851 84.6269 32.0824 79.5777 30.1849 73.5206C29.5789 71.5863 29.3077 69.5475 28.8811 67.4395C31.8693 66.8947 34.8598 66.4668 37.9663 66.0349Z" fill="#D5D5D5"/>
<path d="M88.6055 59.396C87.6256 53.0324 84.7799 47.7036 79.9558 43.5289C75.8438 39.9705 71.0651 37.885 65.5398 37.4271C57.4491 36.7565 50.593 39.3463 44.9421 44.9926C41.2579 48.6737 39.0061 53.2248 38.1098 58.391C38.0658 58.6445 38.1065 58.9126 38.1065 59.2809C35.1124 58.9685 32.1196 58.5491 29.0201 58.1066C28.8699 55.1417 29.8666 52.4256 30.9186 49.7673C32.7855 45.05 35.607 40.9275 39.3134 37.4394C44.5094 32.5496 50.6715 29.4406 57.6945 28.3837C66.0592 27.125 74.0876 28.4604 81.3248 33.0159C88.691 37.6526 94.0076 43.9918 96.4462 52.4808C96.9597 54.2684 97.2921 56.1079 97.7034 58.0315C94.7043 58.5654 91.7096 58.9914 88.6055 59.396Z" fill="#D5D5D5"/>
<path d="M280.784 64.2033C280.784 68.7829 280.784 73.2314 280.784 77.7549C278.52 77.7549 276.312 77.7549 274.012 77.7549C274.012 76.6185 274.012 75.4614 274.012 74.2543C273.14 74.9671 272.393 75.6766 271.552 76.2501C267.787 78.8173 263.755 79.1794 259.393 77.9357C256.676 77.1609 254.463 75.6534 252.69 73.6721C250.661 71.405 249.481 68.6142 248.962 65.5251C248.421 62.2952 248.796 59.2082 250.047 56.273C250.752 54.6161 251.837 53.0769 252.969 51.6586C253.732 50.7032 254.842 50.0024 255.858 49.2737C258.655 47.2683 261.889 46.6635 265.202 46.9581C268.55 47.2559 271.59 48.4967 273.899 51.3057C273.899 50.2043 273.899 49.1535 273.899 48.0309C276.215 48.0309 278.424 48.0309 280.784 48.0309C280.784 53.3659 280.784 58.7191 280.784 64.2033ZM256.314 66.3725C256.765 67.1748 257.078 68.1088 257.696 68.7514C258.879 69.9822 260.244 70.9261 261.946 71.5242C265.224 72.6758 268.224 71.89 270.707 70.0154C272.907 68.3542 274.009 65.6633 273.926 62.787C273.85 60.1287 273.028 57.8011 270.874 55.9128C268.816 54.1092 266.478 53.2483 263.934 53.5576C261.687 53.8309 259.35 54.5407 257.95 56.6219C257.2 57.7361 256.358 58.9695 256.173 60.2385C255.888 62.1954 256.131 64.229 256.314 66.3725Z" fill="white"/>
<path d="M328.462 77.5233C326.623 76.1807 324.667 75.0791 323.194 73.5228C321.306 71.5279 320.162 69.0109 319.646 66.2473C319.052 63.0605 319.304 59.9067 320.249 56.869C320.691 55.4512 321.807 54.2479 322.584 52.9276C323.794 50.8717 325.628 49.51 327.699 48.4829C330.428 47.1298 333.351 46.5555 336.388 47.0013C339.568 47.468 342.349 48.7821 344.613 51.5811C344.613 50.1776 344.613 49.1146 344.613 48.008C346.834 48.008 348.953 48.008 351.124 48.008C351.124 57.9425 351.124 67.825 351.124 77.7689C348.973 77.7689 346.854 77.7689 344.635 77.7689C344.635 76.601 344.635 75.4486 344.635 74.1929C343.609 75.0275 342.753 75.8586 341.771 76.4982C338.15 78.8583 334.242 79.183 330.151 77.96C329.627 77.8035 329.09 77.6937 328.462 77.5233ZM338.925 71.2794C340.118 70.4179 341.571 69.7616 342.449 68.6517C344.198 66.4389 344.898 63.8337 344.368 60.94C343.946 58.6367 342.73 56.7012 341.009 55.4195C338.882 53.8358 336.283 53.0389 333.485 53.7171C331.244 54.2602 329.266 55.3327 327.941 57.1785C326.103 59.7389 325.68 62.7928 326.619 65.7027C328.317 70.967 334.191 73.3642 338.925 71.2794Z" fill="white"/>
<path d="M171.793 48.7405C173.714 48.1236 175.498 47.189 177.363 46.9799C180.676 46.6085 183.913 47.201 186.689 49.2707C187.5 49.8758 188.224 50.5976 189.115 51.3769C189.115 50.1797 189.115 49.1168 189.115 48.0077C191.338 48.0077 193.457 48.0077 195.629 48.0077C195.629 57.9435 195.629 67.828 195.629 77.7714C193.472 77.7714 191.353 77.7714 189.132 77.7714C189.132 76.595 189.132 75.4431 189.132 74.1252C188.233 74.9202 187.541 75.6917 186.705 76.2441C182.676 78.9036 178.414 79.2378 173.831 77.712C170.268 76.526 167.594 74.1844 165.91 71.1359C163.665 67.069 163.223 62.5299 164.534 57.9269C165.617 54.1237 167.704 51.1293 171.197 49.1721C171.383 49.0679 171.529 48.8922 171.793 48.7405ZM184.794 70.5038C185.379 70.0862 186.105 69.777 186.527 69.2329C188.792 66.3097 189.938 63.1921 188.357 59.473C186.55 55.2243 183.544 53.5888 179.726 53.536C176.649 53.4935 173.995 54.8762 172.213 57.6003C169.751 61.3638 170.307 66.1867 173.345 69.3253C175.113 71.1514 177.343 71.9101 179.735 72.0087C181.434 72.0786 183.178 71.7024 184.794 70.5038Z" fill="white"/>
<path d="M384.37 47.7579C388.519 46.3711 392.398 46.5563 396.011 49.0481C399.111 51.1865 400.5 54.2391 400.537 57.889C400.605 64.4794 400.556 71.0709 400.556 77.7461C398.311 77.7461 396.103 77.7461 393.787 77.7461C393.769 77.421 393.73 77.0465 393.73 76.672C393.726 70.951 393.8 65.2288 393.705 59.5093C393.626 54.7934 389.898 52.7906 385.897 53.5911C381.595 54.4516 380.262 57.2513 380.119 61.2139C379.92 66.7015 380.069 72.2015 380.069 77.763C377.789 77.763 375.581 77.763 373.306 77.763C373.306 63.8479 373.306 49.9411 373.306 35.9678C375.522 35.9678 377.73 35.9678 380.031 35.9678C380.031 40.7976 380.031 45.6182 380.031 50.3524C381.469 49.4933 382.874 48.654 384.37 47.7579Z" fill="white"/>
<path d="M296.016 55.8322C295.064 57.2155 294.438 58.6101 294.44 60.2409C294.445 66.0466 294.442 71.8522 294.442 77.744C292.114 77.744 289.818 77.744 287.435 77.744C287.435 67.9043 287.435 58.0151 287.435 48.0409C289.681 48.0409 291.976 48.0409 294.407 48.0409C294.407 48.7445 294.407 49.4967 294.407 50.6852C295.133 49.9852 295.527 49.4833 296.029 49.1407C299.655 46.6692 303.527 46.3236 307.681 47.6781C310.701 48.6632 312.687 50.6932 313.833 53.4883C314.463 55.0228 314.851 56.7611 314.881 58.416C314.999 64.8301 314.929 71.2476 314.929 77.747C312.595 77.747 310.299 77.747 307.897 77.747C307.879 77.4189 307.84 77.0442 307.84 76.6695C307.836 70.9047 307.742 65.1377 307.878 59.3761C307.944 56.5826 305.777 53.7922 302.675 53.4825C300.158 53.2313 297.846 53.8203 296.016 55.8322Z" fill="white"/>
<path d="M407.389 72.0233C407.035 70.1902 406.418 68.4689 406.383 66.736C406.26 60.5402 406.335 54.3405 406.335 48.0491C408.56 48.0491 410.769 48.0491 413.164 48.0491C413.164 48.389 413.164 48.8027 413.164 49.2163C413.164 54.6733 413.133 60.1305 413.181 65.5871C413.198 67.55 413.733 69.3964 415.352 70.6922C417.218 72.1851 419.401 72.4513 421.624 71.8259C422.682 71.5282 423.832 70.9927 424.553 70.2099C425.434 69.2531 426.436 67.9397 426.472 66.7528C426.66 60.5438 426.56 54.326 426.56 48.0336C429.168 48.0336 431.463 48.0336 433.837 48.0336C433.837 57.8945 433.837 67.7809 433.837 77.7488C431.577 77.7488 429.282 77.7488 426.892 77.7488C426.892 76.8952 426.892 76.0002 426.892 74.8171C426.192 75.4801 425.728 76.0309 425.16 76.439C420.579 79.7348 414.287 79.2604 410.249 76.0053C409.04 75.0307 408.331 73.4389 407.389 72.0233Z" fill="white"/>
<path d="M218.682 56.5495C218.331 56.4817 217.924 56.4355 217.834 56.242C216.752 53.9258 214.748 53.1542 212.426 53.2538C211.401 53.2978 210.29 53.7925 209.418 54.3786C208.126 55.2472 208.562 57.0901 209.859 57.9538C212.103 59.4494 214.706 59.754 217.167 60.5517C219.767 61.3943 222.393 62.5246 223.638 65.0884C224.376 66.6094 224.552 68.5436 224.496 70.2766C224.395 73.4407 222.406 75.618 219.749 76.9938C218.14 77.8269 216.267 78.2823 214.459 78.5728C211.655 79.023 208.835 78.4681 206.276 77.4239C203.787 76.4082 201.75 74.5684 200.555 72.039C200.432 71.7785 200.64 71.1219 200.893 70.964C202.635 69.874 204.43 68.8677 206.228 67.8222C206.581 68.4448 206.904 69.016 207.228 69.5866C208.824 72.3996 213.954 73.2777 216.714 71.0765C217.826 70.1904 218.191 68.6576 216.538 67.5459C214.647 66.2748 212.505 65.7711 210.341 65.1994C208.671 64.7582 207.031 64.0028 205.554 63.0995C204.46 62.4305 203.438 61.4326 202.755 60.3484C200.799 57.2414 201.291 54.0177 203.098 51.0758C204.025 49.5668 205.611 48.5482 207.383 47.9419C209.293 47.2884 211.194 46.7343 213.254 46.8996C217.754 47.2609 221.441 49.0283 223.878 52.9502C223.984 53.1196 223.664 53.7577 223.389 53.922C221.877 54.8262 220.316 55.6508 218.682 56.5495Z" fill="white"/>
<path d="M232.191 58.7007C232.191 57.1785 232.191 55.7873 232.191 54.2925C230.367 54.2925 228.597 54.2925 226.751 54.2925C226.751 52.1633 226.751 50.1357 226.751 48.0033C228.5 48.0033 230.27 48.0033 232.191 48.0033C232.191 46.3049 232.3 44.6981 232.159 43.1133C232.033 41.6844 232.514 41.0638 233.928 40.7862C235.607 40.4568 237.233 39.8611 239.021 39.3403C239.021 40.77 239.021 42.1885 239.021 43.607C239.021 45.0005 239.021 46.3941 239.021 47.8911C241.439 47.8911 243.823 47.8911 246.29 47.8911C246.29 50.0193 246.29 52.0472 246.29 54.1795C243.957 54.1795 241.574 54.1795 239.105 54.1795C239.072 54.6057 239.024 54.9361 239.024 55.2666C239.019 59.5444 239.01 63.8222 239.025 68.0999C239.032 69.9298 239.924 71.645 242.461 71.5492C243.72 71.5017 244.982 71.5409 246.309 71.5409C246.309 73.6428 246.309 75.6703 246.309 77.6667C243.354 78.3423 240.419 78.0908 237.499 77.556C235.151 77.126 232.486 73.7604 232.448 71.3394C232.383 67.1699 232.279 63.0009 232.191 58.7007Z" fill="white"/>
</g>
<defs>
<clipPath id="clip0_3372_205">
<rect width="472" height="125" fill="white"/>
</clipPath>
</defs>
</svg>
