<svg width="1964" height="512" viewBox="0 0 1964 512" fill="none" xmlns="http://www.w3.org/2000/svg">
<path d="M31 23C31 20.7909 32.7909 19 35 19H237.529C247.47 19 255.529 27.0589 255.529 37V224.113C255.529 234.054 247.47 242.113 237.529 242.113H35C32.7909 242.113 31 240.322 31 238.113V23Z" fill="#8CD812"/>
<path d="M31 273.887C31 271.678 32.7909 269.887 35 269.887H237.529C247.47 269.887 255.529 277.946 255.529 287.887V475C255.529 484.941 247.47 493 237.529 493H35C32.7909 493 31 491.209 31 489V273.887Z" fill="white"/>
<path d="M284.652 37C284.652 27.0589 292.711 19 302.652 19H508C510.209 19 512 20.7909 512 23V489C512 491.209 510.209 493 508 493H302.652C292.711 493 284.652 484.941 284.652 475V37Z" fill="white"/>
<path d="M602.128 223V191.768H644.624C652.475 191.768 658.619 189.464 663.056 184.856C667.493 180.248 669.712 174.616 669.712 167.96C669.712 163.352 668.688 159.256 666.64 155.672C664.592 152.088 661.691 149.272 657.936 147.224C654.352 145.176 649.915 144.152 644.624 144.152H602.128V113.688H641.296C647.952 113.688 653.328 112.067 657.424 108.824C661.52 105.411 663.568 100.291 663.568 93.464C663.568 86.808 661.52 81.8587 657.424 78.616C653.328 75.2027 647.952 73.496 641.296 73.496H602.128V42.264H648.976C660.581 42.264 670.395 44.3973 678.416 48.664C686.608 52.9307 692.837 58.648 697.104 65.816C701.371 72.984 703.504 80.92 703.504 89.624C703.504 100.717 699.92 110.104 692.752 117.784C685.584 125.464 675.003 130.755 661.008 133.656L662.032 120.088C677.221 122.989 688.912 128.877 697.104 137.752C705.467 146.627 709.648 157.549 709.648 170.52C709.648 180.419 707.173 189.379 702.224 197.4C697.445 205.251 690.448 211.48 681.232 216.088C672.187 220.696 661.264 223 648.464 223H602.128ZM571.408 223V42.264H611.088V223H571.408ZM739.504 223V37.144H778.672V223H739.504ZM873.838 225.816C861.038 225.816 849.433 223 839.022 217.368C828.782 211.565 820.675 203.715 814.702 193.816C808.729 183.917 805.742 172.824 805.742 160.536C805.742 148.248 808.729 137.24 814.702 127.512C820.675 117.784 828.782 110.104 839.022 104.472C849.262 98.6693 860.867 95.768 873.838 95.768C886.809 95.768 898.414 98.584 908.654 104.216C918.894 109.848 927.001 117.613 932.974 127.512C938.947 137.24 941.934 148.248 941.934 160.536C941.934 172.824 938.947 183.917 932.974 193.816C927.001 203.715 918.894 211.565 908.654 217.368C898.414 223 886.809 225.816 873.838 225.816ZM873.838 190.232C879.47 190.232 884.419 189.037 888.686 186.648C892.953 184.088 896.195 180.589 898.414 176.152C900.803 171.544 901.998 166.339 901.998 160.536C901.998 154.733 900.803 149.699 898.414 145.432C896.025 140.995 892.697 137.581 888.43 135.192C884.334 132.632 879.47 131.352 873.838 131.352C868.377 131.352 863.513 132.632 859.246 135.192C854.979 137.581 851.651 140.995 849.262 145.432C846.873 149.869 845.678 154.989 845.678 160.792C845.678 166.424 846.873 171.544 849.262 176.152C851.651 180.589 854.979 184.088 859.246 186.648C863.513 189.037 868.377 190.232 873.838 190.232ZM1029.27 225.816C1016.47 225.816 1004.87 223 994.458 217.368C984.047 211.736 975.855 203.971 969.882 194.072C963.909 184.173 960.922 173.08 960.922 160.792C960.922 148.333 963.909 137.24 969.882 127.512C976.026 117.613 984.303 109.848 994.714 104.216C1005.12 98.584 1016.82 95.768 1029.79 95.768C1039.51 95.768 1048.39 97.4747 1056.41 100.888C1064.6 104.131 1071.86 109.08 1078.17 115.736L1053.08 140.824C1050.18 137.581 1046.77 135.192 1042.84 133.656C1039.09 132.12 1034.74 131.352 1029.79 131.352C1024.15 131.352 1019.12 132.632 1014.68 135.192C1010.42 137.581 1007 140.995 1004.44 145.432C1002.05 149.699 1000.86 154.733 1000.86 160.536C1000.86 166.339 1002.05 171.459 1004.44 175.896C1007 180.333 1010.5 183.832 1014.94 186.392C1019.38 188.952 1024.32 190.232 1029.79 190.232C1034.91 190.232 1039.43 189.379 1043.35 187.672C1047.45 185.795 1050.95 183.235 1053.85 179.992L1078.68 205.08C1072.2 211.907 1064.86 217.112 1056.67 220.696C1048.47 224.109 1039.34 225.816 1029.27 225.816ZM1183.41 223L1139.89 158.488L1183.15 98.584H1226.93L1174.71 165.912L1175.99 149.784L1229.49 223H1183.41ZM1103.79 223V37.144H1142.96V223H1103.79ZM1305.88 225.816C1293.08 225.816 1281.48 223 1271.07 217.368C1260.66 211.736 1252.47 203.971 1246.49 194.072C1240.52 184.173 1237.53 173.08 1237.53 160.792C1237.53 148.333 1240.52 137.24 1246.49 127.512C1252.64 117.613 1260.91 109.848 1271.32 104.216C1281.73 98.584 1293.43 95.768 1306.4 95.768C1316.12 95.768 1325 97.4747 1333.02 100.888C1341.21 104.131 1348.47 109.08 1354.78 115.736L1329.69 140.824C1326.79 137.581 1323.38 135.192 1319.45 133.656C1315.7 132.12 1311.35 131.352 1306.4 131.352C1300.76 131.352 1295.73 132.632 1291.29 135.192C1287.03 137.581 1283.61 140.995 1281.05 145.432C1278.66 149.699 1277.47 154.733 1277.47 160.536C1277.47 166.339 1278.66 171.459 1281.05 175.896C1283.61 180.333 1287.11 183.832 1291.55 186.392C1295.99 188.952 1300.93 190.232 1306.4 190.232C1311.52 190.232 1316.04 189.379 1319.96 187.672C1324.06 185.795 1327.56 183.235 1330.46 179.992L1355.29 205.08C1348.81 211.907 1341.47 217.112 1333.28 220.696C1325.08 224.109 1315.95 225.816 1305.88 225.816ZM1462.58 223V152.088C1462.58 145.603 1460.53 140.397 1456.44 136.472C1452.51 132.376 1447.48 130.328 1441.33 130.328C1437.07 130.328 1433.31 131.267 1430.07 133.144C1426.83 134.851 1424.27 137.411 1422.39 140.824C1420.51 144.067 1419.57 147.821 1419.57 152.088L1404.47 144.664C1404.47 134.936 1406.52 126.403 1410.61 119.064C1414.71 111.725 1420.43 106.093 1427.76 102.168C1435.1 98.072 1443.55 96.024 1453.11 96.024C1462.84 96.024 1471.37 98.072 1478.71 102.168C1486.05 106.093 1491.68 111.64 1495.6 118.808C1499.7 125.805 1501.75 133.997 1501.75 143.384V223H1462.58ZM1380.4 223V37.144H1419.57V223H1380.4ZM1586.55 225.56C1575.12 225.56 1564.88 222.744 1555.83 217.112C1546.96 211.48 1539.87 203.8 1534.58 194.072C1529.46 184.344 1526.9 173.251 1526.9 160.792C1526.9 148.333 1529.46 137.24 1534.58 127.512C1539.87 117.784 1546.96 110.104 1555.83 104.472C1564.88 98.84 1575.12 96.024 1586.55 96.024C1594.91 96.024 1602.42 97.6453 1609.08 100.888C1615.91 104.131 1621.45 108.653 1625.72 114.456C1629.99 120.088 1632.38 126.573 1632.89 133.912V187.672C1632.38 195.011 1629.99 201.581 1625.72 207.384C1621.62 213.016 1616.16 217.453 1609.34 220.696C1602.51 223.939 1594.91 225.56 1586.55 225.56ZM1594.49 190.232C1602.85 190.232 1609.59 187.501 1614.71 182.04C1619.83 176.408 1622.39 169.325 1622.39 160.792C1622.39 154.989 1621.2 149.869 1618.81 145.432C1616.59 140.995 1613.35 137.581 1609.08 135.192C1604.98 132.632 1600.21 131.352 1594.74 131.352C1589.28 131.352 1584.42 132.632 1580.15 135.192C1576.06 137.581 1572.73 140.995 1570.17 145.432C1567.78 149.869 1566.58 154.989 1566.58 160.792C1566.58 166.424 1567.78 171.459 1570.17 175.896C1572.56 180.333 1575.89 183.832 1580.15 186.392C1584.42 188.952 1589.2 190.232 1594.49 190.232ZM1620.86 223V189.464L1626.74 159.256L1620.86 129.048V98.584H1659.26V223H1620.86ZM1694.51 223V98.584H1733.68V223H1694.51ZM1714.23 81.432C1708.08 81.432 1702.96 79.384 1698.87 75.288C1694.94 71.0213 1692.98 65.9013 1692.98 59.928C1692.98 53.784 1694.94 48.664 1698.87 44.568C1702.96 40.472 1708.08 38.424 1714.23 38.424C1720.37 38.424 1725.4 40.472 1729.33 44.568C1733.26 48.664 1735.22 53.784 1735.22 59.928C1735.22 65.9013 1733.26 71.0213 1729.33 75.288C1725.4 79.384 1720.37 81.432 1714.23 81.432ZM1851.12 223V152.088C1851.12 145.603 1849.07 140.397 1844.98 136.472C1841.05 132.376 1836.02 130.328 1829.87 130.328C1825.61 130.328 1821.85 131.267 1818.61 133.144C1815.37 134.851 1812.81 137.411 1810.93 140.824C1809.05 144.067 1808.11 147.821 1808.11 152.088L1793.01 144.664C1793.01 134.936 1795.14 126.403 1799.41 119.064C1803.67 111.725 1809.56 106.093 1817.07 102.168C1824.75 98.072 1833.37 96.024 1842.93 96.024C1852.14 96.024 1860.25 98.2427 1867.25 102.68C1874.42 106.947 1880.05 112.664 1884.14 119.832C1888.24 127 1890.29 134.851 1890.29 143.384V223H1851.12ZM1768.94 223V98.584H1808.11V223H1768.94ZM657.168 481.816C643.685 481.816 631.141 479.512 619.536 474.904C608.101 470.125 598.032 463.469 589.328 454.936C580.795 446.403 574.139 436.504 569.36 425.24C564.581 413.805 562.192 401.517 562.192 388.376C562.192 375.235 564.581 363.032 569.36 351.768C574.139 340.333 580.795 330.435 589.328 322.072C597.861 313.709 607.845 307.224 619.28 302.616C630.885 297.837 643.429 295.448 656.912 295.448C671.248 295.448 683.963 297.752 695.056 302.36C706.32 306.968 716.133 313.283 724.496 321.304L697.616 348.44C692.837 343.32 687.035 339.309 680.208 336.408C673.552 333.507 665.787 332.056 656.912 332.056C649.061 332.056 641.808 333.421 635.152 336.152C628.667 338.712 623.035 342.467 618.256 347.416C613.648 352.365 609.979 358.339 607.248 365.336C604.688 372.333 603.408 380.013 603.408 388.376C603.408 396.909 604.688 404.675 607.248 411.672C609.979 418.669 613.648 424.643 618.256 429.592C623.035 434.541 628.667 438.381 635.152 441.112C641.808 443.843 649.061 445.208 656.912 445.208C666.128 445.208 674.149 443.757 680.976 440.856C687.803 437.955 693.691 433.944 698.64 428.824L725.776 455.96C717.072 463.981 707.088 470.296 695.824 474.904C684.731 479.512 671.845 481.816 657.168 481.816ZM810.444 481.816C796.961 481.816 784.929 479.085 774.348 473.624C763.937 467.992 755.745 460.227 749.772 450.328C743.799 440.429 740.812 429.251 740.812 416.792C740.812 404.333 743.713 393.24 749.516 383.512C755.489 373.613 763.511 365.848 773.58 360.216C783.649 354.584 794.999 351.768 807.628 351.768C819.916 351.768 830.753 354.413 840.14 359.704C849.527 364.995 856.865 372.333 862.156 381.72C867.617 391.107 870.348 401.859 870.348 413.976C870.348 416.195 870.177 418.584 869.836 421.144C869.665 423.533 869.239 426.349 868.556 429.592L761.292 429.848V402.968L851.916 402.712L835.02 413.976C834.849 406.808 833.74 400.92 831.692 396.312C829.644 391.533 826.572 387.949 822.476 385.56C818.551 383 813.687 381.72 807.884 381.72C801.74 381.72 796.364 383.171 791.756 386.072C787.319 388.803 783.82 392.728 781.26 397.848C778.871 402.968 777.676 409.197 777.676 416.536C777.676 423.875 778.956 430.189 781.516 435.48C784.247 440.6 788.001 444.611 792.78 447.512C797.729 450.243 803.532 451.608 810.188 451.608C816.332 451.608 821.879 450.584 826.828 448.536C831.777 446.317 836.129 443.075 839.884 438.808L861.388 460.312C855.244 467.48 847.82 472.856 839.116 476.44C830.412 480.024 820.855 481.816 810.444 481.816ZM979.11 479V408.088C979.11 401.603 977.062 396.397 972.966 392.472C969.041 388.376 964.006 386.328 957.862 386.328C953.595 386.328 949.841 387.267 946.598 389.144C943.355 390.851 940.795 393.411 938.918 396.824C937.041 400.067 936.102 403.821 936.102 408.088L920.998 400.664C920.998 390.936 923.131 382.403 927.398 375.064C931.665 367.725 937.553 362.093 945.062 358.168C952.742 354.072 961.361 352.024 970.918 352.024C980.134 352.024 988.241 354.243 995.238 358.68C1002.41 362.947 1008.04 368.664 1012.13 375.832C1016.23 383 1018.28 390.851 1018.28 399.384V479H979.11ZM896.934 479V354.584H936.102V479H896.934ZM1067.28 479V303.128H1106.45V479H1067.28ZM1039.12 387.864V354.584H1134.61V387.864H1039.12ZM1218.48 481.816C1205 481.816 1192.97 479.085 1182.39 473.624C1171.98 467.992 1163.79 460.227 1157.81 450.328C1151.84 440.429 1148.85 429.251 1148.85 416.792C1148.85 404.333 1151.75 393.24 1157.56 383.512C1163.53 373.613 1171.55 365.848 1181.62 360.216C1191.69 354.584 1203.04 351.768 1215.67 351.768C1227.96 351.768 1238.79 354.413 1248.18 359.704C1257.57 364.995 1264.91 372.333 1270.2 381.72C1275.66 391.107 1278.39 401.859 1278.39 413.976C1278.39 416.195 1278.22 418.584 1277.88 421.144C1277.71 423.533 1277.28 426.349 1276.6 429.592L1169.33 429.848V402.968L1259.96 402.712L1243.06 413.976C1242.89 406.808 1241.78 400.92 1239.73 396.312C1237.68 391.533 1234.61 387.949 1230.52 385.56C1226.59 383 1221.73 381.72 1215.92 381.72C1209.78 381.72 1204.4 383.171 1199.8 386.072C1195.36 388.803 1191.86 392.728 1189.3 397.848C1186.91 402.968 1185.72 409.197 1185.72 416.536C1185.72 423.875 1187 430.189 1189.56 435.48C1192.29 440.6 1196.04 444.611 1200.82 447.512C1205.77 450.243 1211.57 451.608 1218.23 451.608C1224.37 451.608 1229.92 450.584 1234.87 448.536C1239.82 446.317 1244.17 443.075 1247.92 438.808L1269.43 460.312C1263.28 467.48 1255.86 472.856 1247.16 476.44C1238.45 480.024 1228.89 481.816 1218.48 481.816ZM1304.97 479V354.584H1344.14V479H1304.97ZM1344.14 410.648L1327.76 397.848C1331 383.341 1336.46 372.077 1344.14 364.056C1351.82 356.035 1362.49 352.024 1376.14 352.024C1382.12 352.024 1387.32 352.963 1391.76 354.84C1396.37 356.547 1400.38 359.277 1403.79 363.032L1380.49 392.472C1378.79 390.595 1376.65 389.144 1374.09 388.12C1371.53 387.096 1368.63 386.584 1365.39 386.584C1358.9 386.584 1353.7 388.632 1349.77 392.728C1346.02 396.653 1344.14 402.627 1344.14 410.648Z" fill="white"/>
</svg>
